<svg width="938" height="992" viewBox="0 0 938 992" fill="none" xmlns="http://www.w3.org/2000/svg">
<rect width="938" height="992" rx="29" fill="#E4E7EC"/>
<path d="M743.149 616.677H535.992V496.799H743.149V616.677ZM537.256 615.413H741.885V498.063H537.256V615.413Z" fill="#E0E0E0"/>
<path d="M700.413 560.719H563.736V564.726H700.413V560.719Z" fill="white"/>
<path d="M709.829 575.66H563.736V580.033H709.829V575.66Z" fill="white"/>
<path d="M709.829 590.777H563.736V595.151H709.829V590.777Z" fill="white"/>
<path d="M611.503 539.017H563.736V549.419H611.503V539.017Z" fill="white"/>
<path d="M742.517 497.431H536.662V516.517H742.517V497.431Z" fill="#E0E0E0"/>
<path d="M726.678 513.661C726.413 513.408 729.067 510.21 732.594 506.519C736.121 502.828 739.217 500.035 739.47 500.275C739.723 500.515 737.081 503.726 733.555 507.429C730.028 511.133 726.931 513.914 726.678 513.661Z" fill="white"/>
<path d="M739.496 513.661C739.243 513.914 736.159 511.133 732.619 507.429C729.08 503.726 726.438 500.528 726.704 500.275C726.969 500.022 730.041 502.803 733.58 506.519C737.119 510.235 739.736 513.408 739.496 513.661Z" fill="white"/>
<path d="M488.238 260.039H282.383V378.666H488.238V260.039Z" fill="#E6E6E6"/>
<path d="M446.147 323.34H309.47V327.347H446.147V323.34Z" fill="white"/>
<path d="M455.563 338.281H309.47V342.654H455.563V338.281Z" fill="white"/>
<path d="M455.563 353.398H309.47V357.772H455.563V353.398Z" fill="white"/>
<path d="M357.237 301.637H309.47V312.04H357.237V301.637Z" fill="white"/>
<path d="M488.238 260.039H282.383V279.126H488.238V260.039Z" fill="#E0E0E0"/>
<path d="M471.705 276.18C471.439 275.94 474.094 272.73 477.62 269.039C481.147 265.348 484.244 262.555 484.497 262.807C484.749 263.06 482.108 266.258 478.581 269.949C475.054 273.64 471.958 276.408 471.705 276.18Z" fill="white"/>
<path d="M484.497 276.18C484.244 276.433 481.16 273.652 477.62 269.949C474.081 266.245 471.439 263.06 471.705 262.807C471.97 262.555 475.042 265.335 478.581 269.039C482.12 272.742 484.762 275.94 484.497 276.18Z" fill="white"/>
<path d="M410.274 480.405H203.155V360.515H410.274V480.405ZM204.419 479.141H409.01V361.779H204.419V479.141Z" fill="#E0E0E0"/>
<path d="M367.551 424.448H230.875V428.455H367.551V424.448Z" fill="white"/>
<path d="M376.968 439.388H230.875V443.762H376.968V439.388Z" fill="white"/>
<path d="M376.968 454.506H230.875V458.879H376.968V454.506Z" fill="white"/>
<path d="M278.642 402.745H230.875V413.147H278.642V402.745Z" fill="white"/>
<path d="M409.642 361.147H203.787V380.233H409.642V361.147Z" fill="#E0E0E0"/>
<path d="M649.309 507.872H406.242V725.482H649.309V507.872Z" fill="#E6E6E6"/>
<path d="M418.465 439.325H228.056V637.154H418.465V439.325Z" fill="white"/>
<path d="M418.465 439.325H228.056V460.876H418.465V439.325Z" fill="#E0E0E0"/>
<path d="M243.78 449.879C243.746 450.661 243.482 451.415 243.023 452.048C242.564 452.681 241.928 453.166 241.196 453.441C240.464 453.716 239.667 453.771 238.904 453.597C238.141 453.424 237.446 453.03 236.905 452.465C236.364 451.9 236.001 451.188 235.861 450.419C235.72 449.649 235.809 448.855 236.116 448.136C236.423 447.416 236.934 446.802 237.587 446.371C238.239 445.939 239.004 445.709 239.786 445.708C240.868 445.735 241.895 446.188 242.644 446.97C243.392 447.751 243.801 448.797 243.78 449.879Z" fill="white"/>
<path d="M259.997 449.879C259.965 450.665 259.703 451.423 259.243 452.06C258.783 452.697 258.145 453.185 257.41 453.463C256.675 453.741 255.875 453.796 255.108 453.623C254.342 453.449 253.643 453.054 253.1 452.486C252.556 451.919 252.192 451.204 252.051 450.43C251.911 449.657 252.001 448.86 252.31 448.137C252.62 447.415 253.135 446.799 253.791 446.368C254.448 445.936 255.217 445.706 256.003 445.708C257.085 445.735 258.112 446.188 258.86 446.97C259.609 447.751 260.018 448.797 259.997 449.879Z" fill="white"/>
<path d="M276.214 449.879C276.182 450.665 275.92 451.423 275.46 452.06C275 452.697 274.363 453.185 273.628 453.463C272.892 453.741 272.092 453.796 271.325 453.623C270.559 453.449 269.861 453.054 269.317 452.486C268.773 451.919 268.409 451.204 268.268 450.43C268.128 449.657 268.218 448.86 268.528 448.137C268.837 447.415 269.352 446.799 270.009 446.368C270.665 445.936 271.434 445.706 272.22 445.708C273.302 445.735 274.329 446.188 275.078 446.97C275.826 447.751 276.235 448.797 276.214 449.879Z" fill="white"/>
<path d="M715.96 303.306H472.893V545.564H715.96V303.306Z" fill="white"/>
<path d="M715.96 303.306H472.893V331.683H715.96V303.306Z" fill="#E0E0E0"/>
<path d="M493.597 317.21C493.553 318.242 493.206 319.237 492.601 320.074C491.995 320.91 491.157 321.55 490.191 321.914C489.225 322.279 488.173 322.351 487.166 322.123C486.159 321.894 485.241 321.375 484.526 320.63C483.812 319.884 483.332 318.946 483.146 317.93C482.961 316.914 483.078 315.866 483.482 314.916C483.887 313.966 484.562 313.156 485.423 312.586C486.284 312.017 487.294 311.712 488.327 311.711C489.754 311.745 491.109 312.342 492.097 313.372C493.085 314.403 493.625 315.783 493.597 317.21Z" fill="white"/>
<path d="M513.404 313.494C514.105 314.255 514.566 315.205 514.731 316.226C514.895 317.248 514.755 318.295 514.329 319.237C513.902 320.18 513.208 320.976 512.332 321.526C511.456 322.077 510.438 322.358 509.404 322.334C508.37 322.31 507.365 321.982 506.516 321.391C505.667 320.8 505.011 319.972 504.629 319.011C504.246 318.05 504.156 316.997 504.368 315.985C504.58 314.972 505.085 314.044 505.82 313.317C506.85 312.337 508.227 311.805 509.649 311.838C511.07 311.871 512.421 312.466 513.404 313.494Z" fill="white"/>
<path d="M536.295 317.21C536.251 318.242 535.904 319.237 535.298 320.074C534.693 320.91 533.855 321.55 532.889 321.914C531.923 322.279 530.871 322.351 529.864 322.123C528.857 321.894 527.939 321.375 527.224 320.63C526.51 319.884 526.03 318.946 525.844 317.93C525.659 316.914 525.775 315.866 526.18 314.916C526.585 313.966 527.26 313.156 528.121 312.586C528.982 312.017 529.992 311.712 531.024 311.711C532.451 311.745 533.807 312.342 534.795 313.372C535.783 314.403 536.322 315.783 536.295 317.21Z" fill="white"/>
<path d="M663.454 789.756C663.454 789.933 575.682 790.085 467.445 790.085C359.209 790.085 271.399 789.933 271.399 789.756C271.399 789.579 359.158 789.428 467.445 789.428C575.732 789.428 663.454 789.592 663.454 789.756Z" fill="#263238"/>
<path d="M577.931 635.017C558.403 621.379 553.979 596.061 554.75 573.296C554.876 569.504 554.459 565.485 556.266 562.161C558.074 558.836 562.296 556.548 565.696 558.141C568.515 559.468 569.741 562.755 571.321 565.472C573.429 569.092 576.518 572.041 580.232 573.979C582.646 575.243 585.642 576.001 588.031 574.687C591.317 572.879 591.696 568.367 591.671 564.575C591.671 557.522 591.629 550.477 591.545 543.441C591.318 539.662 591.702 535.872 592.682 532.216C593.858 528.627 596.474 525.302 600.051 524.291C603.629 523.28 608.09 525.365 608.899 529.056C609.039 530.62 609.077 532.19 609.013 533.758C609.114 535.338 609.847 537.07 611.326 537.55C612.805 538.031 614.347 536.931 615.485 535.819C619.378 532.027 622.032 527.085 624.497 522.205C626.962 517.326 629.376 512.308 632.915 508.15C636.455 503.991 641.346 500.692 646.819 500.376C652.293 500.06 657.993 503.422 659.358 508.731C660.723 514.04 657.627 519.463 654.302 523.773C649.286 530.171 643.373 535.812 636.745 540.521C635.452 541.227 634.419 542.331 633.8 543.668C632.979 546.196 635.368 548.724 637.858 549.521C640.676 550.456 643.735 550.165 646.706 550.519C649.676 550.873 652.836 552.162 653.961 554.943C655.503 558.811 652.267 562.856 649.095 565.51C642.724 570.819 635.49 574.996 627.708 577.859C624.927 578.871 622.007 579.768 619.757 581.715C617.507 583.661 616.167 587.061 617.52 589.728C618.872 592.395 622.348 593.242 625.268 592.699C628.188 592.155 630.779 590.588 633.56 589.539C638.755 587.58 645.454 587.934 648.728 592.421C649.742 593.966 650.384 595.726 650.604 597.562C650.823 599.398 650.614 601.259 649.992 603C648.727 606.465 646.78 609.642 644.266 612.341C635.987 622.233 625.231 629.748 613.096 634.12C601.05 638.291 589.889 639.429 577.919 635.043" fill="#0ABE6A"/>
<path d="M653.797 503.498C653.797 503.498 653.683 503.625 653.43 503.852L652.305 504.851C651.319 505.736 649.866 507.025 648.033 508.731C642.837 513.556 638.011 518.766 633.598 524.316C630.779 527.818 627.86 531.787 624.75 536.097C621.641 540.407 618.43 545.059 615.245 550.001C611.849 555.213 608.739 560.605 605.929 566.155C604.463 569.049 603.174 572.07 601.847 575.154L597.928 584.571C592.763 596.433 588.265 608.573 584.454 620.937C581.384 631.052 579.268 641.433 578.134 651.942C577.399 659.035 577.28 666.178 577.78 673.291C577.982 675.819 578.172 677.753 578.349 679.068C578.425 679.7 578.475 680.205 578.526 680.572V681.09C578.471 680.926 578.433 680.757 578.412 680.585C578.349 680.218 578.273 679.725 578.172 679.093C577.944 677.829 577.704 675.832 577.477 673.304C576.867 666.178 576.909 659.011 577.603 651.892C578.667 641.337 580.737 630.908 583.784 620.747C587.563 608.349 592.049 596.178 597.22 584.293L601.24 574.914C602.567 571.843 603.869 568.797 605.348 565.889C608.177 560.323 611.313 554.917 614.739 549.697C617.975 544.641 621.236 540.066 624.308 535.793C627.379 531.521 630.35 527.527 633.156 524.038C637.614 518.503 642.504 513.329 647.78 508.567C649.651 506.886 651.143 505.622 652.154 504.775L653.329 503.827C653.473 503.701 653.63 503.591 653.797 503.498Z" fill="#263238"/>
<path d="M605.512 565.864C605.334 565.343 605.211 564.805 605.145 564.259C604.943 563.21 604.716 561.731 604.45 559.81C603.907 556.018 603.351 550.822 602.756 545.071C602.162 539.32 601.492 534.112 600.936 530.358C600.646 528.488 600.393 526.983 600.216 525.934C600.078 525.397 600.006 524.846 600.001 524.291C600.219 524.798 600.376 525.328 600.469 525.871C600.747 526.908 601.063 528.399 601.417 530.283C602.137 534.075 602.845 539.232 603.439 544.995C604.033 550.759 604.539 555.815 604.931 559.746C605.12 561.516 605.284 563.02 605.411 564.221C605.509 564.763 605.543 565.314 605.512 565.864Z" fill="#263238"/>
<path d="M654.151 556.788C653.536 556.922 652.909 556.999 652.28 557.016C651.016 557.13 649.221 557.281 646.996 557.534C642.547 558.015 636.429 558.899 629.718 560.163C623.006 561.427 616.976 562.856 612.641 563.955C610.48 564.512 608.735 565.017 607.585 565.358C606.971 565.577 606.335 565.729 605.689 565.813C606.273 565.52 606.882 565.279 607.509 565.093C608.697 564.676 610.416 564.094 612.565 563.475C616.875 562.211 622.905 560.707 629.642 559.418C635.349 558.326 641.107 557.525 646.895 557.016C649.133 556.826 650.94 556.751 652.204 556.725C652.853 556.681 653.506 556.702 654.151 556.788Z" fill="#263238"/>
<path d="M584.403 619.862C584.268 619.679 584.158 619.479 584.075 619.268L583.24 617.511C582.52 615.982 581.547 613.719 580.384 610.951C578.033 605.389 575.037 597.603 571.852 588.957C568.666 580.312 565.734 572.525 563.509 566.9C562.422 564.17 561.525 561.933 560.855 560.264L560.147 558.457C560.049 558.249 559.981 558.027 559.945 557.8C560.08 557.983 560.19 558.182 560.273 558.394L561.108 560.151C561.816 561.68 562.801 563.943 563.964 566.711C566.315 572.273 569.311 580.059 572.496 588.705C575.682 597.35 578.614 605.136 580.839 610.761C581.926 613.492 582.823 615.729 583.48 617.397C583.771 618.118 584.011 618.661 584.201 619.205C584.299 619.413 584.367 619.635 584.403 619.862Z" fill="#263238"/>
<path d="M648.968 599.044C648.766 599.16 648.549 599.249 648.324 599.309L646.453 599.941L639.539 602.179C633.699 604.075 625.635 606.78 616.787 609.763C607.939 612.746 599.837 615.4 593.959 617.17C591.027 618.067 588.638 618.75 586.982 619.205L585.073 619.698C584.851 619.768 584.622 619.815 584.391 619.837C584.593 619.721 584.81 619.631 585.035 619.571L586.906 618.939L593.82 616.702C599.66 614.806 607.724 612.101 616.572 609.118C625.42 606.135 633.51 603.481 639.387 601.711C642.332 600.814 644.709 600.131 646.377 599.676L648.286 599.183C648.508 599.113 648.737 599.066 648.968 599.044Z" fill="#263238"/>
<path d="M622.627 292.436L616.117 294.761L613.324 286.255C608.192 270.568 591.836 262.239 576.807 267.535C561.778 272.831 553.777 290.034 558.908 305.72L561.702 314.227L555.167 316.565C552.675 317.532 550.652 319.421 549.517 321.841C548.382 324.261 548.224 327.025 549.075 329.559L567.188 384.91C567.564 386.164 568.188 387.33 569.023 388.338C569.859 389.347 570.888 390.177 572.051 390.779C573.214 391.382 574.485 391.744 575.791 391.846C577.096 391.947 578.409 391.785 579.651 391.369L647.11 367.239C649.635 366.274 651.687 364.368 652.835 361.921C653.983 359.474 654.138 356.677 653.266 354.119L635.14 298.768C634.755 297.517 634.121 296.357 633.277 295.357C632.433 294.356 631.396 293.536 630.228 292.945C629.06 292.354 627.785 292.004 626.479 291.917C625.173 291.829 623.863 292.006 622.627 292.436ZM571.207 301.284C569.823 297.205 570.072 292.749 571.9 288.849C573.729 284.95 576.995 281.909 581.016 280.364C583.001 279.685 585.103 279.413 587.196 279.563C589.288 279.714 591.329 280.285 593.197 281.242C595.064 282.198 596.72 283.521 598.065 285.132C599.41 286.742 600.416 288.607 601.025 290.615L603.806 299.122L573.988 309.79L571.207 301.284ZM609.127 350.403L613.753 364.534C613.838 364.817 613.811 365.123 613.677 365.386C613.543 365.65 613.312 365.852 613.033 365.95L606.549 368.263C606.291 368.334 606.015 368.303 605.779 368.176C605.544 368.049 605.366 367.835 605.285 367.58L600.62 353.512C598.049 353.372 595.581 352.449 593.548 350.868C591.515 349.287 590.013 347.122 589.244 344.664C588.145 341.414 588.346 337.865 589.804 334.76C591.262 331.654 593.866 329.234 597.069 328.004C598.65 327.464 600.324 327.248 601.991 327.368C603.658 327.489 605.283 327.943 606.771 328.705C608.258 329.467 609.577 330.521 610.648 331.803C611.72 333.086 612.522 334.571 613.008 336.17C613.821 338.667 613.888 341.347 613.201 343.882C612.514 346.417 611.103 348.696 609.14 350.44L609.127 350.403Z" fill="#0ABE6A"/>
<path d="M615.826 294.61C615.826 294.787 603.755 299.324 588.739 304.722C573.722 310.119 561.474 314.454 561.411 314.328C561.348 314.202 573.482 309.626 588.511 304.216C603.54 298.806 615.763 294.445 615.826 294.61Z" fill="#263238"/>
<path d="M630.16 296.935C630.216 297.045 630.263 297.159 630.299 297.277C630.4 297.529 630.514 297.858 630.666 298.263C630.995 299.185 631.45 300.462 632.018 302.055L636.872 316.186C638.895 322.177 641.309 329.281 643.988 337.168C645.252 341.125 646.744 345.245 648.134 349.581C648.879 351.815 649.2 354.168 649.082 356.52C648.975 357.743 648.627 358.933 648.059 360.022C647.451 361.106 646.64 362.063 645.67 362.84C643.717 364.266 641.549 365.371 639.248 366.114L632.739 368.452L620.415 372.864L599.546 380.296L585.453 385.251L581.661 386.515L580.649 386.844C580.541 386.892 580.426 386.922 580.308 386.932C580.308 386.932 580.409 386.932 580.624 386.78L581.61 386.389L585.402 384.96L599.42 379.803L620.251 372.219L632.549 367.77L639.059 365.419C641.294 364.706 643.399 363.634 645.29 362.246C646.193 361.525 646.949 360.637 647.515 359.63C648.05 358.623 648.373 357.518 648.463 356.381C648.579 354.115 648.271 351.847 647.553 349.695C646.188 345.397 644.747 341.239 643.445 337.282C640.816 329.382 638.389 322.253 636.468 316.262C634.546 310.271 632.928 305.455 631.816 302.067C631.285 300.411 630.881 299.122 630.552 298.187L630.249 297.176C630.211 297.099 630.181 297.018 630.16 296.935Z" fill="#263238"/>
<path d="M594.566 279.505C594.566 279.505 593.896 279.176 592.657 278.671C590.891 277.992 589.024 277.616 587.133 277.558C584.331 277.462 581.542 277.989 578.968 279.1C575.837 280.484 573.161 282.723 571.245 285.559C569.316 288.388 568.281 291.73 568.274 295.153C568.301 297.959 568.726 300.747 569.538 303.432C570.196 305.733 570.878 307.566 571.333 308.842C571.602 309.491 571.821 310.158 571.991 310.839C571.631 310.233 571.331 309.594 571.093 308.931C570.575 307.667 569.829 305.872 569.096 303.559C568.196 300.845 567.706 298.012 567.642 295.153C567.609 291.601 568.668 288.123 570.676 285.193C572.659 282.253 575.445 279.945 578.702 278.544C581.357 277.427 584.233 276.934 587.108 277.103C589.04 277.202 590.937 277.651 592.707 278.43C593.181 278.649 593.637 278.902 594.073 279.189C594.252 279.268 594.419 279.374 594.566 279.505Z" fill="#263238"/>
<path d="M595.147 328.965C595.349 328.843 595.56 328.737 595.779 328.649C596.412 328.364 597.067 328.131 597.738 327.954C598.804 327.639 599.903 327.453 601.012 327.398C602.521 327.317 604.031 327.545 605.449 328.068C608.685 329.205 611.655 332.504 613.121 336.916C613.824 339.283 613.824 341.804 613.121 344.171C612.341 346.74 610.944 349.08 609.051 350.984L609.127 350.643C610.808 355.256 612.641 360.262 614.537 365.482L614.651 365.798L614.335 365.912L611.44 366.872L605.12 368.983L604.804 369.084L604.703 368.768C602.971 363.536 601.075 358.656 599.647 353.866L599.925 354.081C597.454 353.876 595.098 352.948 593.15 351.414C591.388 350.056 589.943 348.331 588.916 346.358C587.989 344.608 587.527 342.649 587.576 340.67C587.634 338.647 588.139 336.662 589.055 334.857C589.971 333.052 591.274 331.471 592.872 330.229C593.53 329.695 594.268 329.269 595.059 328.965C594.345 329.389 593.653 329.849 592.986 330.343C591.23 331.828 589.886 333.738 589.08 335.892C588.388 337.516 588.065 339.272 588.133 341.036C588.2 342.8 588.658 344.526 589.472 346.092C590.482 347.991 591.892 349.647 593.605 350.946C595.463 352.404 597.71 353.284 600.064 353.474H600.279L600.342 353.664C601.732 358.366 603.641 363.283 605.398 368.541L604.981 368.339L611.301 366.228L614.183 365.255L613.981 365.684C612.097 360.464 610.277 355.446 608.609 350.832V350.643L608.76 350.491C610.598 348.666 611.968 346.424 612.755 343.956C613.425 341.692 613.425 339.281 612.755 337.017C611.377 332.77 608.533 329.547 605.449 328.409C604.083 327.883 602.626 327.637 601.164 327.688C600.072 327.714 598.986 327.862 597.928 328.131C596.044 328.599 595.16 329.028 595.147 328.965Z" fill="#263238"/>
<path d="M556.077 693.933L429.816 693.351C422.525 693.311 415.547 690.378 410.416 685.198C405.285 680.017 402.42 673.012 402.45 665.72L403.79 349.202C403.805 345.589 404.532 342.015 405.929 338.684C407.326 335.352 409.366 332.329 411.932 329.786C414.498 327.244 417.54 325.232 420.884 323.865C424.228 322.499 427.809 321.805 431.421 321.824L557.67 322.405C564.961 322.442 571.94 325.371 577.073 330.549C582.207 335.728 585.075 342.732 585.048 350.023L583.708 666.529C583.693 670.143 582.967 673.718 581.57 677.051C580.173 680.384 578.134 683.409 575.568 685.953C573.002 688.498 569.96 690.512 566.616 691.882C563.272 693.251 559.691 693.947 556.077 693.933Z" fill="#455A64"/>
<path d="M557.48 333.288H533.009C532.211 333.303 531.423 333.475 530.691 333.794C529.959 334.113 529.297 334.574 528.743 335.149C528.189 335.724 527.754 336.403 527.462 337.146C527.17 337.89 527.028 338.683 527.043 339.482V343.918C527.058 344.716 526.916 345.509 526.624 346.252C526.332 346.994 525.896 347.672 525.342 348.246C524.788 348.821 524.126 349.28 523.394 349.598C522.662 349.916 521.875 350.086 521.077 350.099L473.374 349.884C471.76 349.841 470.229 349.16 469.118 347.989C468.006 346.818 467.405 345.254 467.445 343.64V339.204C467.486 337.592 466.887 336.03 465.778 334.859C464.669 333.689 463.141 333.006 461.53 332.959H452.922L431.497 332.858C426.401 332.828 421.501 334.818 417.869 338.393C414.237 341.968 412.17 346.836 412.12 351.932L410.856 660.879C410.845 663.407 411.331 665.913 412.288 668.253C413.244 670.593 414.653 672.721 416.432 674.517C418.211 676.313 420.327 677.741 422.658 678.719C424.989 679.697 427.49 680.206 430.018 680.218L556.014 680.799C558.544 680.811 561.051 680.324 563.392 679.367C565.734 678.41 567.864 677.001 569.661 675.22C571.458 673.439 572.887 671.322 573.866 668.99C574.844 666.657 575.354 664.154 575.366 661.625L576.63 352.678C576.66 347.568 574.66 342.655 571.069 339.019C567.478 335.383 562.59 333.321 557.48 333.288Z" fill="white"/>
<path d="M540.53 639.58L446.842 639.176C445.869 639.176 445.085 638.114 445.098 636.825L445.199 612.316C445.199 611.052 445.995 609.965 446.969 609.965L540.656 610.395C541.196 610.488 541.678 610.786 542.003 611.226C542.328 611.667 542.47 612.216 542.401 612.758L542.312 637.242C542.312 638.544 541.503 639.593 540.53 639.58Z" fill="#0ABE6A"/>
<path d="M477.267 621.641C477.223 621.271 477.045 620.984 476.734 620.779C476.423 620.575 476.041 620.473 475.588 620.473C475.257 620.473 474.968 620.526 474.719 620.633C474.474 620.74 474.281 620.888 474.143 621.075C474.006 621.262 473.938 621.475 473.938 621.714C473.938 621.913 473.986 622.085 474.081 622.228C474.178 622.369 474.302 622.487 474.453 622.582C474.604 622.675 474.762 622.751 474.927 622.812C475.093 622.871 475.245 622.918 475.384 622.955L476.143 623.159C476.337 623.21 476.554 623.281 476.792 623.371C477.033 623.461 477.263 623.584 477.482 623.739C477.704 623.893 477.886 624.09 478.03 624.331C478.173 624.571 478.245 624.867 478.245 625.218C478.245 625.621 478.139 625.986 477.928 626.312C477.718 626.639 477.412 626.898 477.008 627.09C476.606 627.282 476.118 627.378 475.544 627.378C475.009 627.378 474.545 627.292 474.154 627.119C473.764 626.946 473.458 626.705 473.234 626.396C473.012 626.087 472.887 625.728 472.858 625.32H473.792C473.817 625.602 473.911 625.836 474.077 626.02C474.245 626.203 474.457 626.339 474.712 626.429C474.97 626.517 475.247 626.561 475.544 626.561C475.89 626.561 476.2 626.505 476.475 626.393C476.75 626.278 476.968 626.12 477.128 625.918C477.289 625.714 477.369 625.475 477.369 625.203C477.369 624.955 477.3 624.753 477.161 624.597C477.022 624.441 476.84 624.315 476.614 624.217C476.387 624.12 476.143 624.035 475.88 623.962L474.96 623.699C474.376 623.531 473.914 623.292 473.573 622.98C473.233 622.669 473.062 622.261 473.062 621.757C473.062 621.339 473.175 620.974 473.402 620.663C473.63 620.349 473.937 620.105 474.321 619.933C474.708 619.757 475.14 619.67 475.617 619.67C476.099 619.67 476.527 619.756 476.902 619.929C477.277 620.099 477.573 620.333 477.792 620.63C478.014 620.927 478.131 621.264 478.143 621.641H477.267ZM480.638 619.772V627.247H479.733V619.772H480.638ZM488.381 619.772V627.247H487.505L483.431 621.378H483.358V627.247H482.453V619.772H483.329L487.417 625.655H487.49V619.772H488.381ZM495.302 622.108C495.221 621.862 495.116 621.642 494.984 621.447C494.855 621.25 494.701 621.082 494.521 620.944C494.343 620.805 494.141 620.699 493.915 620.626C493.688 620.553 493.44 620.517 493.17 620.517C492.727 620.517 492.325 620.631 491.962 620.86C491.6 621.088 491.311 621.425 491.097 621.871C490.883 622.316 490.776 622.862 490.776 623.509C490.776 624.157 490.884 624.703 491.101 625.148C491.317 625.593 491.61 625.93 491.98 626.159C492.35 626.388 492.766 626.502 493.229 626.502C493.657 626.502 494.034 626.411 494.36 626.229C494.688 626.044 494.944 625.783 495.126 625.447C495.311 625.109 495.404 624.711 495.404 624.254L495.681 624.312H493.433V623.509H496.28V624.312C496.28 624.928 496.148 625.463 495.886 625.918C495.625 626.373 495.265 626.726 494.805 626.977C494.348 627.225 493.822 627.349 493.229 627.349C492.567 627.349 491.985 627.193 491.484 626.882C490.985 626.57 490.596 626.128 490.316 625.553C490.039 624.979 489.9 624.298 489.9 623.509C489.9 622.918 489.979 622.386 490.137 621.914C490.298 621.44 490.524 621.036 490.816 620.703C491.108 620.369 491.454 620.114 491.853 619.936C492.252 619.759 492.691 619.67 493.17 619.67C493.564 619.67 493.932 619.729 494.272 619.849C494.615 619.965 494.921 620.132 495.189 620.349C495.459 620.563 495.684 620.819 495.864 621.119C496.044 621.416 496.168 621.745 496.236 622.108H495.302ZM505.626 619.772H506.531V624.721C506.531 625.232 506.411 625.688 506.17 626.09C505.932 626.489 505.595 626.804 505.159 627.035C504.723 627.264 504.212 627.378 503.626 627.378C503.04 627.378 502.529 627.264 502.093 627.035C501.658 626.804 501.319 626.489 501.078 626.09C500.84 625.688 500.721 625.232 500.721 624.721V619.772H501.626V624.648C501.626 625.013 501.706 625.338 501.867 625.623C502.027 625.905 502.256 626.128 502.553 626.291C502.852 626.451 503.21 626.531 503.626 626.531C504.042 626.531 504.4 626.451 504.699 626.291C504.998 626.128 505.227 625.905 505.385 625.623C505.546 625.338 505.626 625.013 505.626 624.648V619.772ZM508.339 627.247V619.772H510.865C511.451 619.772 511.93 619.878 512.303 620.089C512.677 620.299 512.955 620.582 513.135 620.94C513.315 621.298 513.405 621.697 513.405 622.137C513.405 622.577 513.315 622.978 513.135 623.338C512.957 623.698 512.682 623.985 512.31 624.199C511.938 624.411 511.461 624.517 510.879 624.517H509.069V623.714H510.85C511.251 623.714 511.574 623.644 511.817 623.506C512.061 623.367 512.237 623.18 512.346 622.944C512.458 622.705 512.514 622.436 512.514 622.137C512.514 621.838 512.458 621.57 512.346 621.334C512.237 621.098 512.059 620.913 511.814 620.779C511.568 620.643 511.242 620.575 510.835 620.575H509.244V627.247H508.339Z" fill="#E8E8E3"/>
<path d="M465.529 424.107L433.02 423.959L432.992 429.925L465.502 430.073L465.529 424.107Z" fill="#0ABE6A"/>
<path opacity="0.1" d="M465.529 424.107L433.02 423.959L432.992 429.925L465.502 430.073L465.529 424.107Z" fill="black"/>
<path d="M560.829 460.737C561.085 460.711 561.336 460.652 561.575 460.56C561.925 460.423 562.229 460.191 562.453 459.889C562.676 459.587 562.81 459.228 562.839 458.854C562.839 456.844 562.839 453.912 562.839 450.145C562.839 448.261 562.839 446.151 562.839 443.825C562.839 443.256 562.839 442.662 562.839 442.068C562.922 441.491 562.796 440.904 562.485 440.412C562.311 440.176 562.085 439.983 561.824 439.85C561.563 439.716 561.274 439.644 560.981 439.641H559.009H540.745L435.024 439.249C434.753 439.245 434.485 439.305 434.243 439.426C434.001 439.547 433.792 439.725 433.633 439.944C433.328 440.439 433.211 441.027 433.305 441.6C433.305 442.864 433.305 444.128 433.305 445.392C433.305 447.92 433.305 450.448 433.305 452.976C433.305 454.24 433.305 455.504 433.305 456.768C433.252 457.357 433.252 457.949 433.305 458.538C433.371 458.79 433.494 459.024 433.665 459.221C433.836 459.418 434.05 459.574 434.29 459.675C434.54 459.775 434.806 459.822 435.074 459.814H441.508L469.581 459.966L517.108 460.257L549.15 460.51L557.859 460.611H560.122C560.64 460.611 560.893 460.611 560.893 460.611H560.122H557.859H549.15H517.108L469.581 460.459L441.508 460.345H435.074C434.72 460.36 434.367 460.299 434.038 460.168C433.705 460.026 433.409 459.81 433.172 459.536C432.936 459.262 432.765 458.938 432.673 458.588C432.599 458.257 432.574 457.916 432.597 457.577V456.642C432.597 455.378 432.597 454.114 432.597 452.85C432.597 450.322 432.597 447.794 432.597 445.266C432.597 444.002 432.597 442.738 432.597 441.474C432.573 441.137 432.573 440.799 432.597 440.463C432.644 440.091 432.788 439.738 433.014 439.439C433.232 439.134 433.52 438.886 433.855 438.716C434.19 438.547 434.56 438.461 434.935 438.465L540.656 439.047L558.921 439.173H560.893C561.24 439.174 561.582 439.258 561.89 439.418C562.198 439.579 562.463 439.811 562.662 440.096C563.019 440.646 563.162 441.306 563.067 441.954C563.067 442.548 563.067 443.142 563.067 443.711C563.067 446.012 563.067 448.122 563.067 450.031C563.067 453.823 562.978 456.73 562.953 458.753C562.922 459.141 562.781 459.513 562.546 459.825C562.311 460.136 561.991 460.374 561.626 460.51C561.387 460.658 561.111 460.737 560.829 460.737Z" fill="#E0E0E0"/>
<path d="M502.243 445.594H442.785V451.169H502.243V445.594Z" fill="#0ABE6A"/>
<path opacity="0.2" d="M502.243 445.594H442.785V451.169H502.243V445.594Z" fill="white"/>
<path d="M465.308 478.533L432.798 478.385L432.771 484.351L465.281 484.499L465.308 478.533Z" fill="#0ABE6A"/>
<path opacity="0.1" d="M465.308 478.533L432.798 478.385L432.771 484.351L465.281 484.499L465.308 478.533Z" fill="black"/>
<path d="M560.008 515.165C560.263 515.134 560.517 515.087 560.766 515.026C561.119 514.914 561.444 514.727 561.719 514.478C561.994 514.23 562.212 513.925 562.359 513.585C562.558 513.075 562.636 512.525 562.587 511.98C562.587 511.373 562.587 510.716 562.587 509.983C562.587 508.516 562.587 506.848 562.587 504.927V496.9C562.647 496.319 562.518 495.734 562.22 495.232C561.908 494.717 561.418 494.334 560.842 494.157C560.213 494.045 559.572 494.011 558.934 494.056H540.745L435.39 493.664C434.824 493.666 434.277 493.873 433.851 494.247C433.426 494.621 433.151 495.137 433.077 495.699C433.077 496.9 433.077 498.227 433.077 499.491C433.077 502.019 433.077 504.547 433.077 507.075C433.077 508.339 433.077 509.603 433.077 510.867C433.03 511.458 433.055 512.052 433.153 512.637C433.311 513.15 433.636 513.594 434.076 513.901C434.543 514.197 435.091 514.339 435.643 514.305H437.4H441.053L469.025 514.445L516.387 514.735L548.316 514.988L557 515.089H559.262H560.021H559.262H557H548.316H516.387L469 515.039L441.028 514.937H435.529C434.846 514.978 434.167 514.796 433.595 514.419C433.02 514.021 432.6 513.436 432.407 512.763C432.294 512.121 432.26 511.467 432.306 510.817C432.306 509.553 432.306 508.289 432.306 507.025C432.306 504.497 432.306 501.969 432.306 499.441C432.306 498.177 432.306 496.913 432.306 495.649C432.398 494.926 432.751 494.262 433.298 493.78C433.844 493.298 434.548 493.033 435.276 493.032L540.631 493.614L558.82 493.753C559.497 493.711 560.177 493.758 560.842 493.892C561.499 494.106 562.053 494.557 562.397 495.156C562.724 495.713 562.866 496.359 562.801 497.001C562.801 497.595 562.801 498.177 562.801 498.758C562.801 501.046 562.801 503.144 562.801 505.078C562.801 507.012 562.801 508.643 562.801 510.134C562.801 510.855 562.801 511.525 562.801 512.144C562.847 512.709 562.756 513.277 562.536 513.8C562.372 514.149 562.135 514.458 561.84 514.707C561.546 514.955 561.201 515.137 560.83 515.241C560.553 515.264 560.275 515.238 560.008 515.165Z" fill="#E0E0E0"/>
<path d="M465.062 535.323L432.553 535.175L432.526 541.141L465.035 541.289L465.062 535.323Z" fill="#0ABE6A"/>
<path opacity="0.1" d="M465.062 535.323L432.553 535.175L432.526 541.141L465.035 541.289L465.062 535.323Z" fill="black"/>
<path d="M559.755 571.931C560.011 571.901 560.264 571.855 560.513 571.792C560.865 571.68 561.189 571.495 561.463 571.249C561.738 571.003 561.957 570.701 562.106 570.364C562.304 569.853 562.382 569.304 562.334 568.759C562.334 568.139 562.334 567.495 562.334 566.749C562.334 565.295 562.334 563.614 562.334 561.693V553.666C562.394 553.085 562.265 552.5 561.967 551.998C561.648 551.492 561.16 551.116 560.589 550.936C559.96 550.819 559.319 550.781 558.681 550.822H540.492L435.137 550.431C434.571 550.432 434.024 550.639 433.598 551.013C433.173 551.388 432.898 551.904 432.824 552.466C432.824 553.73 432.824 554.994 432.824 556.258C432.824 558.786 432.824 561.314 432.824 563.842C432.824 565.106 432.824 566.37 432.824 567.634C432.777 568.22 432.803 568.81 432.9 569.391C433.051 569.906 433.378 570.353 433.823 570.655C434.287 570.958 434.837 571.1 435.39 571.059H440.889L468.861 571.211L516.223 571.501L548.152 571.754L556.835 571.855H559.098C559.603 571.855 559.856 571.855 559.856 571.855C559.856 571.855 559.603 571.855 559.098 571.855H556.835H548.152H516.223L468.861 571.716L440.889 571.603H435.39C434.706 571.649 434.026 571.466 433.456 571.084C432.881 570.686 432.461 570.101 432.268 569.429C432.155 568.786 432.121 568.132 432.167 567.482C432.167 566.218 432.167 564.954 432.167 563.69C432.167 561.162 432.167 558.634 432.167 556.106C432.167 554.842 432.167 553.578 432.167 552.251C432.256 551.529 432.606 550.865 433.151 550.383C433.696 549.901 434.397 549.635 435.125 549.634L540.479 550.216L558.668 550.355C559.345 550.313 560.025 550.36 560.69 550.494C561.347 550.708 561.901 551.159 562.245 551.758C562.572 552.315 562.714 552.961 562.65 553.603C562.65 554.197 562.65 554.791 562.65 555.36C562.65 557.648 562.65 559.746 562.65 561.68C562.65 563.614 562.65 565.245 562.65 566.736C562.65 567.457 562.65 568.127 562.65 568.746C562.698 569.311 562.607 569.88 562.384 570.402C562.22 570.751 561.983 571.06 561.688 571.309C561.394 571.557 561.049 571.739 560.678 571.843C560.381 571.944 560.065 571.974 559.755 571.931Z" fill="#E0E0E0"/>
<path d="M500.974 501.598L441.516 501.328L441.491 506.903L500.949 507.172L500.974 501.598Z" fill="#0ABE6A"/>
<path opacity="0.2" d="M500.974 501.598L441.516 501.328L441.491 506.903L500.949 507.172L500.974 501.598Z" fill="white"/>
<path d="M446.893 561.617C446.855 562.125 446.67 562.612 446.358 563.016C446.047 563.419 445.624 563.723 445.142 563.889C444.66 564.055 444.14 564.075 443.646 563.948C443.153 563.821 442.707 563.552 442.365 563.174C442.023 562.796 441.799 562.326 441.722 561.822C441.645 561.318 441.717 560.802 441.93 560.339C442.143 559.876 442.487 559.485 442.92 559.216C443.353 558.946 443.855 558.81 444.365 558.824C445.069 558.863 445.729 559.178 446.202 559.701C446.676 560.224 446.924 560.912 446.893 561.617Z" fill="#0ABE6A"/>
<path d="M454.945 561.655C454.969 562.011 454.921 562.369 454.801 562.706C454.682 563.042 454.495 563.351 454.251 563.612C454.008 563.873 453.713 564.082 453.385 564.224C453.058 564.367 452.704 564.44 452.347 564.44C451.99 564.44 451.636 564.367 451.309 564.224C450.981 564.082 450.686 563.873 450.443 563.612C450.199 563.351 450.012 563.042 449.893 562.706C449.773 562.369 449.725 562.011 449.749 561.655C449.725 561.299 449.773 560.941 449.893 560.604C450.012 560.267 450.199 559.959 450.443 559.698C450.686 559.436 450.981 559.228 451.309 559.086C451.636 558.943 451.99 558.87 452.347 558.87C452.704 558.87 453.058 558.943 453.385 559.086C453.713 559.228 454.008 559.436 454.251 559.698C454.495 559.959 454.682 560.267 454.801 560.604C454.921 560.941 454.969 561.299 454.945 561.655Z" fill="#0ABE6A"/>
<path d="M463.009 561.693C462.971 562.201 462.786 562.688 462.475 563.091C462.164 563.495 461.741 563.799 461.259 563.965C460.776 564.13 460.256 564.151 459.763 564.024C459.269 563.897 458.823 563.627 458.481 563.249C458.139 562.871 457.916 562.401 457.838 561.897C457.761 561.394 457.833 560.878 458.046 560.415C458.259 559.952 458.603 559.561 459.036 559.292C459.469 559.022 459.971 558.886 460.481 558.899C461.184 558.942 461.842 559.258 462.315 559.78C462.787 560.302 463.037 560.989 463.009 561.693Z" fill="#0ABE6A"/>
<path d="M471.06 561.731C471.023 562.239 470.837 562.726 470.526 563.129C470.215 563.533 469.792 563.837 469.31 564.003C468.828 564.168 468.308 564.189 467.814 564.062C467.32 563.935 466.875 563.665 466.533 563.287C466.191 562.909 465.967 562.439 465.89 561.935C465.812 561.432 465.884 560.916 466.097 560.453C466.31 559.99 466.654 559.599 467.087 559.33C467.52 559.06 468.022 558.924 468.532 558.937C469.235 558.98 469.893 559.296 470.366 559.818C470.839 560.34 471.088 561.027 471.06 561.731Z" fill="#0ABE6A"/>
<path d="M479.112 561.756C479.077 562.265 478.894 562.753 478.584 563.159C478.274 563.564 477.852 563.87 477.37 564.037C476.888 564.205 476.367 564.227 475.872 564.102C475.378 563.976 474.931 563.707 474.588 563.33C474.244 562.952 474.02 562.482 473.941 561.977C473.863 561.473 473.935 560.957 474.148 560.493C474.36 560.029 474.705 559.638 475.138 559.368C475.571 559.098 476.074 558.962 476.584 558.975C477.285 559.018 477.941 559.332 478.414 559.852C478.886 560.371 479.137 561.054 479.112 561.756Z" fill="#0ABE6A"/>
<path d="M487.176 561.794C487.142 562.3 486.96 562.786 486.653 563.19C486.346 563.595 485.928 563.901 485.449 564.071C484.971 564.241 484.453 564.267 483.96 564.146C483.467 564.026 483.02 563.763 482.673 563.392C482.327 563.021 482.097 562.556 482.012 562.056C481.926 561.555 481.989 561.04 482.192 560.575C482.395 560.11 482.73 559.714 483.155 559.436C483.58 559.159 484.077 559.012 484.585 559.013C485.297 559.039 485.969 559.347 486.455 559.868C486.941 560.389 487.2 561.082 487.176 561.794Z" fill="#0ABE6A"/>
<path d="M495.228 561.832C495.253 562.188 495.204 562.546 495.085 562.883C494.966 563.219 494.779 563.528 494.535 563.789C494.291 564.05 493.996 564.259 493.669 564.401C493.341 564.544 492.988 564.617 492.631 564.617C492.273 564.617 491.92 564.544 491.592 564.401C491.265 564.259 490.97 564.05 490.726 563.789C490.483 563.528 490.296 563.219 490.176 562.883C490.057 562.546 490.008 562.188 490.033 561.832C490.008 561.476 490.057 561.118 490.176 560.781C490.296 560.444 490.483 560.136 490.726 559.875C490.97 559.613 491.265 559.405 491.592 559.263C491.92 559.12 492.273 559.047 492.631 559.047C492.988 559.047 493.341 559.12 493.669 559.263C493.996 559.405 494.291 559.613 494.535 559.875C494.779 560.136 494.966 560.444 495.085 560.781C495.204 561.118 495.253 561.476 495.228 561.832Z" fill="#0ABE6A"/>
<path d="M503.28 561.87C503.245 562.376 503.063 562.862 502.757 563.266C502.45 563.671 502.031 563.977 501.553 564.147C501.074 564.317 500.557 564.343 500.063 564.222C499.57 564.102 499.123 563.839 498.777 563.468C498.431 563.096 498.201 562.632 498.115 562.131C498.03 561.631 498.092 561.116 498.296 560.651C498.499 560.186 498.833 559.79 499.259 559.512C499.684 559.235 500.181 559.088 500.689 559.089C501.401 559.115 502.073 559.423 502.559 559.944C503.044 560.465 503.304 561.158 503.28 561.87Z" fill="#0ABE6A"/>
<path d="M511.331 561.908C511.297 562.417 511.113 562.905 510.803 563.31C510.493 563.716 510.071 564.021 509.589 564.189C509.107 564.357 508.586 564.379 508.092 564.253C507.597 564.127 507.15 563.859 506.807 563.481C506.464 563.104 506.239 562.633 506.161 562.129C506.082 561.625 506.154 561.109 506.367 560.645C506.58 560.181 506.924 559.789 507.357 559.52C507.79 559.25 508.293 559.113 508.803 559.127C509.504 559.169 510.161 559.484 510.633 560.003C511.105 560.523 511.356 561.206 511.331 561.908Z" fill="#0ABE6A"/>
<g opacity="0.2">
<path d="M446.893 561.617C446.855 562.125 446.67 562.612 446.358 563.016C446.047 563.419 445.624 563.723 445.142 563.889C444.66 564.055 444.14 564.075 443.646 563.948C443.153 563.821 442.707 563.552 442.365 563.174C442.023 562.796 441.799 562.326 441.722 561.822C441.645 561.318 441.717 560.802 441.93 560.339C442.143 559.876 442.487 559.485 442.92 559.216C443.353 558.946 443.855 558.81 444.365 558.824C445.069 558.863 445.729 559.178 446.202 559.701C446.676 560.224 446.924 560.912 446.893 561.617Z" fill="white"/>
<path d="M454.945 561.655C454.969 562.011 454.921 562.369 454.801 562.706C454.682 563.042 454.495 563.351 454.251 563.612C454.008 563.873 453.713 564.082 453.385 564.224C453.058 564.367 452.704 564.44 452.347 564.44C451.99 564.44 451.636 564.367 451.309 564.224C450.981 564.082 450.686 563.873 450.443 563.612C450.199 563.351 450.012 563.042 449.893 562.706C449.773 562.369 449.725 562.011 449.749 561.655C449.725 561.299 449.773 560.941 449.893 560.604C450.012 560.267 450.199 559.959 450.443 559.698C450.686 559.436 450.981 559.228 451.309 559.086C451.636 558.943 451.99 558.87 452.347 558.87C452.704 558.87 453.058 558.943 453.385 559.086C453.713 559.228 454.008 559.436 454.251 559.698C454.495 559.959 454.682 560.267 454.801 560.604C454.921 560.941 454.969 561.299 454.945 561.655Z" fill="white"/>
<path d="M463.009 561.693C462.971 562.201 462.786 562.688 462.475 563.091C462.164 563.495 461.741 563.799 461.259 563.965C460.776 564.13 460.256 564.151 459.763 564.024C459.269 563.897 458.823 563.627 458.481 563.249C458.139 562.871 457.916 562.401 457.838 561.897C457.761 561.394 457.833 560.878 458.046 560.415C458.259 559.952 458.603 559.561 459.036 559.292C459.469 559.022 459.971 558.886 460.481 558.899C461.184 558.942 461.842 559.258 462.315 559.78C462.787 560.302 463.037 560.989 463.009 561.693Z" fill="white"/>
<path d="M471.06 561.731C471.023 562.239 470.837 562.726 470.526 563.129C470.215 563.533 469.792 563.837 469.31 564.003C468.828 564.168 468.308 564.189 467.814 564.062C467.32 563.935 466.875 563.665 466.533 563.287C466.191 562.909 465.967 562.439 465.89 561.935C465.812 561.432 465.884 560.916 466.097 560.453C466.31 559.99 466.654 559.599 467.087 559.33C467.52 559.06 468.022 558.924 468.532 558.937C469.235 558.98 469.893 559.296 470.366 559.818C470.839 560.34 471.088 561.027 471.06 561.731Z" fill="white"/>
<path d="M479.112 561.756C479.077 562.265 478.893 562.753 478.583 563.159C478.274 563.564 477.851 563.87 477.369 564.038C476.887 564.205 476.367 564.227 475.872 564.102C475.377 563.976 474.931 563.707 474.587 563.33C474.244 562.952 474.019 562.482 473.941 561.978C473.863 561.473 473.934 560.957 474.147 560.493C474.36 560.029 474.704 559.638 475.137 559.368C475.571 559.098 476.074 558.962 476.584 558.975C477.285 559.018 477.941 559.332 478.413 559.852C478.885 560.371 479.136 561.055 479.112 561.756Z" fill="white"/>
<path d="M487.176 561.794C487.142 562.301 486.96 562.786 486.653 563.191C486.346 563.595 485.928 563.901 485.449 564.071C484.971 564.241 484.453 564.267 483.96 564.146C483.467 564.026 483.02 563.764 482.673 563.392C482.327 563.021 482.097 562.556 482.012 562.056C481.926 561.555 481.989 561.041 482.192 560.575C482.395 560.11 482.73 559.714 483.155 559.437C483.58 559.159 484.077 559.012 484.585 559.013C485.297 559.04 485.969 559.347 486.455 559.868C486.941 560.389 487.2 561.082 487.176 561.794Z" fill="white"/>
<path d="M495.228 561.832C495.253 562.188 495.204 562.546 495.085 562.883C494.966 563.219 494.779 563.528 494.535 563.789C494.291 564.05 493.996 564.259 493.669 564.401C493.341 564.544 492.988 564.617 492.631 564.617C492.273 564.617 491.92 564.544 491.592 564.401C491.265 564.259 490.97 564.05 490.726 563.789C490.483 563.528 490.296 563.219 490.176 562.883C490.057 562.546 490.008 562.188 490.033 561.832C490.008 561.476 490.057 561.118 490.176 560.781C490.296 560.444 490.483 560.136 490.726 559.875C490.97 559.613 491.265 559.405 491.592 559.263C491.92 559.12 492.273 559.047 492.631 559.047C492.988 559.047 493.341 559.12 493.669 559.263C493.996 559.405 494.291 559.613 494.535 559.875C494.779 560.136 494.966 560.444 495.085 560.781C495.204 561.118 495.253 561.476 495.228 561.832Z" fill="white"/>
<path d="M503.28 561.87C503.245 562.376 503.063 562.862 502.757 563.266C502.45 563.671 502.031 563.977 501.553 564.147C501.074 564.317 500.557 564.343 500.063 564.222C499.57 564.102 499.123 563.839 498.777 563.468C498.431 563.096 498.201 562.632 498.115 562.131C498.03 561.631 498.092 561.116 498.296 560.651C498.499 560.186 498.833 559.79 499.259 559.512C499.684 559.235 500.181 559.088 500.689 559.089C501.401 559.115 502.073 559.423 502.559 559.944C503.044 560.465 503.304 561.158 503.28 561.87Z" fill="white"/>
<path d="M511.331 561.908C511.297 562.417 511.113 562.905 510.803 563.31C510.493 563.716 510.071 564.022 509.589 564.189C509.107 564.357 508.586 564.379 508.092 564.253C507.597 564.128 507.15 563.859 506.807 563.481C506.464 563.104 506.239 562.634 506.161 562.129C506.082 561.625 506.154 561.109 506.367 560.645C506.58 560.181 506.924 559.79 507.357 559.52C507.79 559.25 508.293 559.113 508.803 559.127C509.504 559.169 510.161 559.484 510.633 560.003C511.105 560.523 511.356 561.206 511.331 561.908Z" fill="white"/>
</g>
<path d="M499.892 379.437C500.77 379.05 501.515 378.414 502.034 377.607C502.553 376.8 502.824 375.858 502.812 374.899C502.845 374.275 502.75 373.651 502.534 373.066C502.318 372.48 501.985 371.944 501.555 371.491C501.125 371.038 500.607 370.677 500.033 370.431C499.46 370.184 498.842 370.057 498.217 370.057C497.593 370.057 496.975 370.184 496.401 370.431C495.827 370.677 495.31 371.038 494.88 371.491C494.45 371.944 494.117 372.48 493.901 373.066C493.684 373.651 493.59 374.275 493.623 374.899C493.603 375.868 493.872 376.821 494.393 377.637C494.915 378.454 495.668 379.098 496.555 379.487C489.477 380.549 489.793 388.234 489.793 388.234L506.528 388.31C506.528 388.31 506.92 380.486 499.892 379.437Z" fill="#0ABE6A"/>
<path opacity="0.1" d="M499.892 379.437C500.77 379.05 501.515 378.414 502.034 377.607C502.553 376.8 502.824 375.858 502.812 374.899C502.845 374.275 502.75 373.651 502.534 373.066C502.318 372.48 501.985 371.944 501.555 371.491C501.125 371.038 500.607 370.677 500.033 370.431C499.46 370.184 498.842 370.057 498.217 370.057C497.593 370.057 496.975 370.184 496.401 370.431C495.827 370.677 495.31 371.038 494.88 371.491C494.45 371.944 494.117 372.48 493.901 373.066C493.684 373.651 493.59 374.275 493.623 374.899C493.603 375.868 493.872 376.821 494.393 377.637C494.915 378.454 495.668 379.098 496.555 379.487C489.477 380.549 489.793 388.234 489.793 388.234L506.528 388.31C506.528 388.31 506.92 380.486 499.892 379.437Z" fill="black"/>
<path d="M527.086 393.267L467.439 392.996L467.407 400.125L527.054 400.396L527.086 393.267Z" fill="#0ABE6A"/>
<path opacity="0.2" d="M527.086 393.267L467.439 392.996L467.407 400.125L527.054 400.396L527.086 393.267Z" fill="white"/>
<path d="M307.802 430.212H307.208L305.489 430.338C304.559 430.394 303.634 430.516 302.721 430.704C302.13 430.788 301.543 430.901 300.964 431.046L299.005 431.589C295.67 432.612 292.524 434.171 289.689 436.203C285.944 438.921 282.816 442.402 280.512 446.416C279.158 448.73 278.081 451.195 277.302 453.76C276.483 456.548 276.012 459.426 275.899 462.33C275.823 463.855 275.849 465.384 275.975 466.905C275.975 467.676 276.19 468.448 276.291 469.231C276.376 470.021 276.524 470.803 276.733 471.57C277.87 476.642 280.176 481.378 283.468 485.401C286.76 489.423 290.946 492.621 295.693 494.739C299.129 496.221 302.811 497.049 306.551 497.178C310.413 497.391 314.28 496.837 317.927 495.548L319.039 495.131H319.191L319.317 495.206L335.256 503.296L334.789 503.7C333.082 498.417 331.439 493.298 329.846 488.381V488.191L329.985 488.052C333.852 484.158 336.722 479.388 338.353 474.148C339.83 469.358 340.261 464.306 339.617 459.334C339.044 454.916 337.624 450.65 335.433 446.77C333.545 443.437 331.11 440.446 328.228 437.922C325.851 435.924 323.221 434.249 320.404 432.942C318.273 432.023 316.054 431.324 313.781 430.856L311.253 430.439L309.42 430.3L308.308 430.224H307.929C308.055 430.21 308.182 430.21 308.308 430.224H309.433L311.266 430.3L313.794 430.667C316.095 431.1 318.345 431.774 320.505 432.676C323.37 433.968 326.048 435.639 328.469 437.644C331.403 440.157 333.89 443.148 335.825 446.492C338.078 450.413 339.542 454.737 340.135 459.22C340.833 464.269 340.432 469.408 338.96 474.287C337.318 479.636 334.404 484.507 330.466 488.482L330.542 488.153C332.134 493.07 333.79 498.189 335.509 503.46L335.749 504.231L335.029 503.865L319.09 495.788H319.368L318.23 496.205C314.513 497.513 310.575 498.08 306.639 497.873C302.819 497.728 299.06 496.871 295.554 495.345C288.867 492.482 283.304 487.504 279.716 481.176C278.065 478.253 276.86 475.101 276.139 471.822C275.942 471.036 275.794 470.238 275.697 469.433C275.595 468.637 275.431 467.853 275.393 467.07C275.051 462.572 275.526 458.05 276.796 453.722C277.595 451.121 278.702 448.626 280.095 446.29C282.454 442.239 285.647 438.736 289.462 436.013C292.343 433.976 295.542 432.43 298.929 431.438L300.913 430.932C301.497 430.797 302.088 430.691 302.683 430.616C303.605 430.445 304.539 430.344 305.476 430.313L307.208 430.249C307.405 430.223 307.604 430.21 307.802 430.212Z" fill="#0ABE6A"/>
<path d="M315.007 459.688H312.668L307.612 452.584V447.92C307.612 447.92 303.997 447.693 304.427 453.798C304.857 459.903 304.427 458.348 304.427 458.348C304.427 458.348 296.755 458.348 296.123 459.043C295.491 459.739 295.453 467.146 295.364 471.279C295.316 472.275 295.602 473.259 296.176 474.075C296.751 474.89 297.582 475.49 298.537 475.779C298.804 475.853 299.081 475.891 299.358 475.892C301.28 475.892 311.05 474.338 311.05 474.338H315.083L315.007 459.688Z" fill="#0ABE6A"/>
<path d="M321.694 458.437L320.253 474.414H316.258V458.765L321.694 458.437Z" fill="#0ABE6A"/>
<path d="M369.333 783.702V772.895L349.956 772.755L349.792 789.099L350.993 789.187C356.34 789.529 378.194 790.034 381.784 788.922C385.778 787.683 369.333 783.702 369.333 783.702Z" fill="#0ABE6A"/>
<path d="M382.239 787.911C382.239 788.088 374.984 788.239 366.047 788.239C357.111 788.239 349.855 788.088 349.855 787.911C349.855 787.734 357.111 787.582 366.047 787.582C374.984 787.582 382.239 787.734 382.239 787.911Z" fill="#263238"/>
<path d="M369.675 785.914C369.511 785.825 369.675 785.256 370.067 784.65C370.459 784.043 370.99 783.79 371.116 783.917C371.242 784.043 370.977 784.523 370.598 785.042C370.219 785.56 369.839 786.002 369.675 785.914Z" fill="#263238"/>
<path d="M370.914 786.622C370.737 786.622 370.825 785.914 371.204 785.244C371.584 784.574 372.089 784.169 372.228 784.271C372.367 784.372 372.14 784.94 371.786 785.535C371.432 786.129 371.078 786.685 370.914 786.622Z" fill="#263238"/>
<path d="M355.695 787.86C355.619 787.86 355.328 787.633 354.911 787.152C354.402 786.535 353.835 785.968 353.218 785.459C352.61 784.974 351.887 784.656 351.119 784.536C350.525 784.46 350.146 784.536 350.108 784.46C350.07 784.384 350.437 784.119 351.132 784.068C352.049 784.049 352.944 784.353 353.66 784.928C354.33 785.474 354.896 786.138 355.328 786.887C355.619 787.443 355.771 787.81 355.695 787.86Z" fill="#263238"/>
<path d="M369.738 783.879C369.827 784.03 369.498 784.41 368.942 784.612C368.386 784.814 367.893 784.738 367.867 784.612C367.842 784.485 368.234 784.22 368.714 784.043C369.195 783.866 369.637 783.727 369.738 783.879Z" fill="#263238"/>
<path d="M369.435 782.83C369.435 783.019 368.929 783.171 368.272 783.183C367.615 783.196 367.096 783.044 367.109 782.867C367.122 782.691 367.64 782.526 368.272 782.514C368.904 782.501 369.41 782.653 369.435 782.83Z" fill="#263238"/>
<path d="M417.05 783.702V772.895L397.673 772.755L397.508 788.935L398.709 789.023C404.056 789.364 425.923 790.034 429.5 788.922C433.494 787.683 417.05 783.702 417.05 783.702Z" fill="#0ABE6A"/>
<path d="M429.955 787.936C429.955 788.113 422.712 788.265 413.763 788.265C404.814 788.265 397.584 788.113 397.584 787.936C397.584 787.759 404.827 787.607 413.763 787.607C422.7 787.607 429.955 787.759 429.955 787.936Z" fill="#263238"/>
<path d="M417.391 785.914C417.239 785.825 417.391 785.256 417.783 784.65C418.175 784.043 418.705 783.79 418.832 783.917C418.958 784.043 418.693 784.523 418.314 785.042C417.934 785.56 417.555 786.002 417.391 785.914Z" fill="#263238"/>
<path d="M418.63 786.622C418.466 786.622 418.541 785.914 418.933 785.244C419.325 784.574 419.818 784.169 419.957 784.271C420.096 784.372 419.856 784.94 419.502 785.535C419.148 786.129 418.807 786.685 418.63 786.622Z" fill="#263238"/>
<path d="M403.411 787.86C403.335 787.86 403.057 787.633 402.627 787.152C402.118 786.535 401.551 785.968 400.933 785.459C400.326 784.974 399.603 784.656 398.835 784.536C398.254 784.46 397.862 784.536 397.824 784.46C397.786 784.384 398.153 784.119 398.848 784.068C399.765 784.049 400.66 784.353 401.376 784.928C402.05 785.471 402.616 786.135 403.044 786.887C403.335 787.443 403.487 787.81 403.411 787.86Z" fill="#263238"/>
<path d="M417.454 783.879C417.543 784.03 417.214 784.41 416.658 784.612C416.102 784.814 415.609 784.738 415.584 784.612C415.558 784.485 415.95 784.22 416.431 784.043C416.911 783.866 417.353 783.727 417.454 783.879Z" fill="#263238"/>
<path d="M417.176 782.83C417.176 783.019 416.671 783.171 416.013 783.183C415.356 783.196 414.85 783.044 414.863 782.867C414.876 782.691 415.381 782.526 416.013 782.514C416.645 782.501 417.176 782.653 417.176 782.83Z" fill="#263238"/>
<path d="M488.44 462.772C487.935 462.254 486.683 462.507 486.683 462.507C486.809 461.779 486.809 461.035 486.683 460.307C486.456 459.599 484.863 459.739 484.863 459.739C484.79 459.142 484.79 458.54 484.863 457.944C484.876 457.812 484.848 457.679 484.782 457.563C484.716 457.448 484.617 457.356 484.497 457.299C483.743 456.992 482.934 456.845 482.12 456.869C481.147 456.174 485.091 450.65 486.557 448.881C488.023 447.111 487.758 445.733 486.456 445.733C485.559 445.733 480.958 451.042 479.542 452.824C478.126 454.607 474.372 459.562 474.246 455.605C474.119 451.649 472.527 448.666 471.528 448.16C470.53 447.655 469.468 448.843 470.011 449.943C470.489 451.192 470.787 452.503 470.896 453.836C471.033 454.897 470.986 455.975 470.757 457.021C470.338 458.967 469.767 460.877 469.051 462.734H468.95C468.95 462.734 441.369 489.19 439.372 491.073C437.59 492.767 401.743 489.063 394.551 488.305C392.107 487.947 389.639 487.778 387.169 487.799C384.047 487.938 383.491 488.381 380.381 488.419C372.528 488.506 364.694 489.195 356.947 490.479C353.438 491.075 350.162 492.624 347.473 494.955C344.785 497.287 342.789 500.312 341.703 503.7C334.46 526.326 318.053 579.882 315.159 609.965C312.971 613.931 310.997 618.011 309.243 622.188C307.208 627.724 307.701 627.914 308.384 628.04C310.229 628.381 312.327 618.446 313.111 620.848C313.895 623.25 309.129 632.692 311.063 632.97C313.591 633.324 315.601 622.858 315.841 622.023C316.081 621.189 317.333 621.455 317.105 622.238C316.739 623.351 313.187 635.144 315.664 635.523C317.029 635.725 317.181 633.235 317.181 633.235C317.181 633.235 319.709 621.948 320.859 622.175C322.01 622.403 320.783 629.064 320.202 631.289C319.621 633.513 320.43 634.638 321.618 634.095C322.427 633.715 324.361 626.953 324.891 624.754C325.422 622.554 326.75 616.462 328.532 619.988C330.314 623.515 333.019 625.563 334.131 625.613C334.382 625.584 334.618 625.481 334.81 625.317C335.001 625.152 335.139 624.935 335.206 624.691C335.272 624.448 335.265 624.19 335.183 623.951C335.102 623.712 334.952 623.503 334.751 623.351C333.794 622.416 332.973 621.353 332.311 620.191C331.721 619.286 331.294 618.285 331.047 617.233C330.538 615.136 330.241 612.993 330.162 610.837L329.96 609.573C332.791 595.555 340.944 554.412 352.712 528.134L357.541 538.069L359.639 545.425L346.771 577.189L401.654 576.469L393.463 544.945L403.411 512.081C414.168 512.321 441.786 512.725 446.387 510.64C452.176 508.112 482.12 470.293 482.12 470.293C484.072 468.776 485.942 467.156 487.72 465.439C487.72 465.439 489.54 463.91 488.44 462.772Z" fill="#FFBE9D"/>
<path d="M344.357 553.717C345.95 548.282 354.128 521.409 354.128 521.409C354.128 521.409 358.147 543.314 357.085 545.956C356.109 548.217 354.955 550.398 353.635 552.478C344.357 566.597 345.57 573.663 345.57 573.663L401.629 571.956C401.755 564.12 397.116 545.893 396.156 542.986C395.195 540.078 398.393 530.56 398.393 530.56C398.393 530.56 404.713 524.127 404.485 520.815C404.365 517.84 403.997 514.881 403.386 511.967L437.514 513.231L436.439 490.1L387.421 485.195C385.715 490.011 370.281 487.648 370.281 487.648C353.622 488.204 352.586 491.263 345.659 496.647C338.732 502.032 327.268 548.244 327.268 548.244L344.357 553.717Z" fill="#0ABE6A"/>
<path d="M377.499 548.244C376.527 548.417 375.538 548.468 374.554 548.395C372.721 548.395 370.206 548.269 367.438 547.991C364.669 547.713 362.167 547.321 360.384 546.967C359.402 546.841 358.438 546.594 357.515 546.234C358.503 546.234 359.489 546.327 360.46 546.512C362.255 546.74 364.745 547.056 367.501 547.334C370.256 547.612 372.759 547.801 374.566 547.928C375.552 547.94 376.534 548.046 377.499 548.244Z" fill="#263238"/>
<path d="M381.342 543.479C380.37 543.955 379.342 544.307 378.283 544.528C373.24 545.853 368.037 546.47 362.824 546.36C361.746 546.396 360.667 546.294 359.614 546.057C360.678 545.923 361.752 545.868 362.824 545.893C364.809 545.83 367.539 545.691 370.547 545.337C373.556 544.983 376.235 544.477 378.131 544.073C379.184 543.791 380.258 543.593 381.342 543.479Z" fill="#263238"/>
<path d="M400.201 522.218C400.175 523.182 400.044 524.14 399.809 525.075C399.48 526.832 398.975 529.233 398.33 531.862C397.685 534.491 397.066 536.918 396.51 538.562C396.286 539.502 395.955 540.414 395.524 541.279C395.594 540.318 395.772 539.369 396.055 538.448C396.535 536.476 397.079 534.201 397.685 531.711C398.292 529.221 398.874 526.945 399.354 524.974C399.525 524.024 399.809 523.099 400.201 522.218Z" fill="#263238"/>
<path d="M344.951 550.494C342.027 550.042 339.141 549.37 336.318 548.484C333.433 547.809 330.603 546.922 327.849 545.829C330.772 546.288 333.657 546.96 336.482 547.839C339.367 548.511 342.198 549.399 344.951 550.494Z" fill="#263238"/>
<path d="M403.992 511.689C403.516 511.771 403.028 511.771 402.551 511.689C401.231 511.553 399.935 511.243 398.696 510.766C396.628 509.989 394.746 508.788 393.17 507.24C391.594 505.693 390.359 503.832 389.545 501.779C388.645 499.52 388.26 497.089 388.42 494.663C388.476 492.662 389.075 490.713 390.152 489.025C390.909 487.888 392.04 487.052 393.35 486.662C393.699 486.565 394.061 486.518 394.424 486.523C394.677 486.523 394.803 486.523 394.803 486.523C394.803 486.523 394.272 486.523 393.425 486.864C392.224 487.308 391.206 488.139 390.531 489.228C388.812 491.933 388.331 496.875 390.164 501.488C391.017 503.664 392.353 505.617 394.07 507.202C395.477 508.498 397.098 509.542 398.861 510.286C400.515 510.94 402.236 511.41 403.992 511.689Z" fill="#263238"/>
<path d="M433.457 512.776C433.14 508.9 433.039 505.009 433.153 501.122C433.054 497.238 433.172 493.351 433.507 489.48C433.824 493.352 433.925 497.239 433.811 501.122C433.917 505.01 433.799 508.901 433.457 512.776Z" fill="#263238"/>
<path d="M387.093 486.611C387.232 483.792 387.523 480.607 387.523 480.607C387.523 480.607 394.5 479.836 394.917 472.631C395.334 465.427 394.917 448.805 394.917 448.805L382.277 442.333L368.247 453.368L370.408 489.392L383.276 490.214C384.259 490.241 385.213 489.877 385.929 489.202C386.645 488.526 387.063 487.595 387.093 486.611Z" fill="#FFBE9D"/>
<path d="M388.344 466.931C388.344 466.931 388.344 467.07 388.231 467.234C388.136 467.353 388.015 467.448 387.876 467.509C387.737 467.571 387.586 467.598 387.434 467.588C386.625 467.588 385.842 466.653 385.563 465.566C385.431 465.039 385.431 464.487 385.563 463.96C385.589 463.73 385.672 463.51 385.805 463.321C385.937 463.131 386.115 462.977 386.322 462.873C386.492 462.803 386.683 462.803 386.853 462.873C386.979 462.936 387.081 463.038 387.143 463.164C387.232 463.379 387.143 463.518 387.143 463.505C387.143 463.493 387.143 463.379 387.017 463.252C386.951 463.162 386.854 463.099 386.744 463.076C386.635 463.052 386.52 463.07 386.423 463.126C386.268 463.22 386.139 463.351 386.049 463.508C385.958 463.665 385.908 463.842 385.905 464.023C385.798 464.494 385.798 464.982 385.905 465.452C386.158 466.438 386.84 467.234 387.447 467.31C387.566 467.326 387.686 467.317 387.802 467.285C387.917 467.252 388.024 467.196 388.117 467.12C388.268 467.019 388.319 466.918 388.344 466.931Z" fill="#EB996E"/>
<path d="M399.253 444.912C398.279 441.6 394.753 439.957 391.542 439.047C386.651 437.656 381.367 437.05 376.589 438.807C371.811 440.564 366.073 443.648 366.073 448.919C363.254 448.691 361.636 451.156 360.524 454.215C359.813 456.078 359.386 458.039 359.26 460.029C358.906 466.931 356.972 476.461 352.497 481.517C349.969 484.336 346.468 486.283 345.027 489.796C343.763 492.843 344.42 496.458 343.245 499.542C342.196 502.259 339.883 504.193 338.189 506.557C336.463 509.239 335.448 512.315 335.238 515.496C335.028 518.678 335.63 521.861 336.988 524.746C338.356 527.557 340.282 530.06 342.648 532.103C345.015 534.146 347.772 535.685 350.753 536.628C356.657 538.424 362.953 538.485 368.891 536.805C373.348 535.739 377.505 533.678 381.051 530.775C384.679 527.813 387.171 523.686 388.104 519.096C389.002 513.939 387.561 508.693 386.486 503.561C383.124 487.344 384.085 486.497 388.332 471.443C388.433 471.178 388.483 470.9 388.559 470.634C388.635 470.369 388.673 470.242 388.724 470.04C388.844 469.445 388.908 468.84 388.913 468.233C388.293 468.463 387.62 468.512 386.972 468.373C386.325 468.234 385.731 467.914 385.26 467.449C384.788 466.953 384.459 466.339 384.307 465.671C384.156 465.004 384.188 464.308 384.401 463.657C384.699 462.945 385.143 462.304 385.705 461.775C386.267 461.246 386.933 460.841 387.662 460.585C389.065 460.004 390.569 459.701 391.947 459.056C394.867 457.666 396.889 454.784 398.267 451.763C399.399 449.669 399.749 447.24 399.253 444.912Z" fill="#263238"/>
<path d="M388.85 467.272C389.117 467.667 389.338 468.091 389.507 468.536C389.886 469.332 390.392 470.457 390.948 471.759L391.049 471.999H390.784L389.52 472.113C388.648 472.113 387.915 472.277 387.055 472.265C386.98 472.248 386.911 472.212 386.853 472.162C386.796 472.111 386.752 472.046 386.726 471.974C386.689 471.859 386.689 471.735 386.726 471.62C386.756 471.45 386.794 471.281 386.84 471.115L387.068 470.217C387.182 469.618 387.36 469.034 387.599 468.473C387.575 469.083 387.486 469.689 387.333 470.28L387.156 471.178C387.093 471.481 386.979 471.949 387.156 471.911C387.788 471.911 388.686 471.772 389.52 471.721L390.784 471.607L390.62 471.886C390.076 470.622 389.621 469.433 389.356 468.612C389.123 468.192 388.952 467.741 388.85 467.272Z" fill="#0ABE6A"/>
<path d="M345.57 573.663L401.629 571.956L426.024 667.186L421.537 776.421H391.896L395.524 669.512L373.846 603.215L377.183 780.655L347.226 781.098L344.079 614.313C343.94 609.674 342.423 599.221 342.992 594.62L345.57 573.663Z" fill="#263238"/>
<path d="M381.304 604.568C380.386 604.625 379.465 604.57 378.561 604.403C376.867 604.201 374.554 603.847 372.013 603.341C369.473 602.836 367.198 602.254 365.554 601.787C364.676 601.594 363.826 601.288 363.026 600.877C363.026 600.687 367.147 601.673 372.203 602.697C377.259 603.721 381.329 604.378 381.304 604.568Z" fill="#455A64"/>
<path d="M421.234 770.43C421.234 770.607 414.522 770.758 406.242 770.758C397.963 770.758 391.239 770.607 391.239 770.43C391.239 770.253 397.951 770.101 406.242 770.101C414.534 770.101 421.234 770.24 421.234 770.43Z" fill="#455A64"/>
<path d="M376.918 776.042C376.918 776.231 370.395 776.37 362.356 776.37C354.317 776.37 347.808 776.231 347.808 776.042C347.808 775.852 354.33 775.713 362.356 775.713C370.383 775.713 376.918 775.865 376.918 776.042Z" fill="#455A64"/>
<path d="M373.05 775.587C372.873 775.587 372.089 736.82 371.293 689.003C370.497 641.186 370.029 602.394 370.193 602.394C370.358 602.394 371.167 641.148 371.95 688.99C372.734 736.833 373.24 775.587 373.05 775.587Z" fill="#455A64"/>
<path d="M417.252 770.43C417.238 770.257 417.238 770.084 417.252 769.911V768.395C417.252 767.03 417.353 765.07 417.429 762.58C417.606 757.524 417.859 750.18 418.175 741.181C418.857 723.08 419.818 698.129 420.867 670.586C420.867 670.321 420.867 670.068 420.867 669.841V669.929C414.231 643.385 408.227 619.293 403.866 601.863L398.81 581.247C398.229 578.833 397.786 576.949 397.47 575.635C397.319 575.015 397.217 574.535 397.129 574.168C397.08 574.004 397.05 573.834 397.041 573.663C397.106 573.822 397.157 573.987 397.192 574.156C397.293 574.51 397.42 574.99 397.597 575.597C397.938 576.861 398.431 578.782 399.063 581.184C400.327 586.063 402.109 593.091 404.334 601.749C408.733 619.167 414.8 643.195 421.524 669.777V669.866C421.524 670.093 421.524 670.359 421.524 670.612C420.399 698.154 419.375 723.093 418.63 741.193C418.238 750.206 417.909 757.499 417.682 762.58C417.555 765.108 417.454 767.03 417.391 768.395C417.391 769.039 417.315 769.545 417.302 769.911C417.304 770.086 417.287 770.259 417.252 770.43Z" fill="#455A64"/>
<path d="M407.582 667.616C405.453 668.316 403.26 668.803 401.035 669.07C398.304 669.537 395.979 669.866 394.93 669.916V669.664C395.271 669.765 395.448 669.828 395.448 669.879C395.448 669.929 395.233 669.879 394.879 669.879H394.121L394.879 669.651C395.865 669.36 398.191 668.88 400.921 668.387C403.111 667.912 405.342 667.654 407.582 667.616Z" fill="#455A64"/>
<path d="M407.064 671.244C405.093 671.334 403.117 671.245 401.161 670.978C399.187 670.938 397.22 670.722 395.284 670.334C399.234 670.011 403.21 670.318 407.064 671.244Z" fill="#455A64"/>
<path opacity="0.2" d="M345.331 575.673C345.994 576.525 346.831 577.228 347.785 577.735C348.739 578.243 349.789 578.544 350.867 578.618C353.125 578.885 355.408 578.843 357.655 578.491C372.127 576.886 387.46 575.407 401.629 571.956C383.288 572.98 363.911 572.639 345.571 573.663L345.381 575.23" fill="black"/>
<g opacity="0.2">
<path d="M364.227 601.521L374.567 641.641L373.846 603.215L364.227 601.521Z" fill="black"/>
</g>
</svg>
